Coordinates
version=1
nRows=21
nColumns=22
inDegrees=yes

Units are S.I. units (second, meters, Newtons, ...)
If the header above contains a line with 'inDegrees', this indicates whether rotational values are in degrees (yes) or radians (no).

endheader
time	pelvis_tilt	pelvis_list	pelvis_rotation	pelvis_tx	pelvis_ty	pelvis_tz	hip_flexion_r	hip_adduction_r	hip_rotation_r	knee_angle_r	ankle_angle_r	subtalar_angle_r	hip_flexion_l	hip_adduction_l	hip_rotation_l	knee_angle_l	ankle_angle_l	subtalar_angle_l	lumbar_extension	lumbar_bending	lumbar_rotation
      4.23000000	      2.17084546	     10.43172261	    185.34304053	      0.49425632	      0.95226084	     -0.58771045	     19.83664570	      5.28979482	     -3.22616790	    -25.55711105	      8.60631925	      8.10554310	     12.66560096	     -6.66504684	     15.17573336	    -62.69205064	      0.50793312	     -2.04178681	      0.34489525	      9.00144482	     -6.13586409
      4.24000000	      2.05025865	     10.46164030	    185.82809553	      0.48769863	      0.95356478	     -0.58877446	     19.03913528	      5.38299984	     -3.54753540	    -25.12325314	      8.77709149	      7.90334245	     13.95880775	     -6.64046502	     14.48598391	    -63.37329089	      1.53533483	     -2.99198233	      0.26852969	      9.01102432	     -5.82057511
      4.25000000	      1.93171357	     10.43113134	    186.29622276	      0.48117053	      0.95484801	     -0.58959291	     18.23286053	      5.40757996	     -3.86448946	    -24.68102057	      8.95383793	      7.72704398	     15.15269974	     -6.48849674	     13.85754733	    -63.78266053	      2.52594779	     -3.61370453	      0.18454788	      8.96930423	     -5.48452147
      4.26000000	      1.83190829	     10.32448591	    186.73662236	      0.47470767	      0.95607187	     -0.59017132	     17.44879091	      5.34317010	     -4.16351869	    -24.25930828	      9.16290286	      7.66769936	     16.26803989	     -6.19099899	     13.27315485	    -63.93920981	      3.46550962	     -3.80020015	      0.10403425	      8.85659635	     -5.11172470
      4.27000000	      1.74942152	     10.19708168	    187.17203329	      0.46828836	      0.95721780	     -0.59053607	     16.67378685	      5.24797786	     -4.47593660	    -23.82432102	      9.35768440	      7.58260302	     17.32374653	     -5.82523586	     12.73527695	    -63.86188824	      4.30380562	     -3.94401306	      0.03965692	      8.73152106	     -4.75487734
      4.28000000	      1.65301707	     10.00280897	    187.60136964	      0.46190928	      0.95833353	     -0.59068074	     15.87845383	      5.07595458	     -4.81430761	    -23.39820802	      9.57202484	      7.40865112	     18.27471134	     -5.35656334	     12.21952445	    -63.55107241	      5.03281409	     -3.94960293	     -0.05516984	      8.54577177	     -4.39507804
      4.29000000	      1.58412548	      9.80190151	    188.00898296	      0.45558193	      0.95934283	     -0.59068432	     15.09631654	      4.90093847	     -5.09991197	    -22.94645128	      9.76449171	      7.24408102	     19.19935837	     -4.87054388	     11.71397440	    -63.05814393	      5.71632709	     -3.63899449	     -0.12502535	      8.35889379	     -4.02847467
      4.30000000	      1.53543657	      9.58758190	    188.42253513	      0.44934868	      0.96022329	     -0.59053059	     14.35205178	      4.69423984	     -5.43909441	    -22.52625960	     10.00190572	      7.17051657	     20.10682422	     -4.36815252	     11.22486893	    -62.40578362	      6.33434803	     -3.31987254	     -0.18364732	      8.15838095	     -3.65522674
      4.31000000	      1.49700787	      9.40702924	    188.82853098	      0.44315379	      0.96101397	     -0.59030981	     13.59637049	      4.53582206	     -5.73005932	    -22.05493394	     10.20023874	      7.10302093	     21.00267102	     -3.94075578	     10.71706789	    -61.61594321	      6.96083663	     -2.66887432	     -0.22961956	      7.99293673	     -3.31653848
      4.32000000	      1.46542781	      9.21338331	    189.25401577	      0.43703424	      0.96169019	     -0.58994460	     12.86356277	      4.34755533	     -6.09168639	    -21.61645398	     10.44385474	      7.05219502	     21.88276416	     -3.52499780	     10.20628443	    -60.70587337	      7.51159067	     -2.21719629	     -0.27545086	      7.81171348	     -2.97078972
      4.33000000	      1.44606414	      9.08419090	    189.67702571	      0.43094510	      0.96226285	     -0.58955608	     12.12539110	      4.24392298	     -6.40205445	    -21.12163063	     10.63659723	      7.01252338	     22.77878320	     -3.24142193	      9.66200597	    -59.70569790	      8.07967375	     -1.51521080	     -0.30022689	      7.69401757	     -2.67237717
      4.34000000	      1.42336538	      8.94350860	    190.11826571	      0.42490128	      0.96274362	     -0.58904571	     11.39891944	      4.11791529	     -6.77951687	    -20.65941268	     10.87043587	      6.97324860	     23.64860994	     -2.98867912	      9.09764487	    -58.61053699	      8.55137052	     -1.12452166	     -0.33386520	      7.55973430	     -2.36865024
      4.35000000	      1.39947473	      8.84985586	    190.56459730	      0.41886139	      0.96313473	     -0.58849258	     10.65854906	      4.05612494	     -7.12405995	    -20.15884095	     11.07351973	      6.93874747	     24.51584271	     -2.84685639	      8.50606493	    -57.44915027	      8.99591804	     -0.70033447	     -0.35922932	      7.46934914	     -2.09307282
      4.36000000	      1.38362164	      8.77782267	    191.01931007	      0.41283493	      0.96341896	     -0.58786594	      9.93108778	      4.01954712	     -7.47857615	    -19.65862353	     11.27509452	      6.90272155	     25.38150846	     -2.77594806	      7.89122903	    -56.22660174	      9.36673441	     -0.45260708	     -0.37096320	      7.39303003	     -1.84004313
      4.37000000	      1.36678288	      8.72199063	    191.47817947	      0.40679210	      0.96361398	     -0.58716607	      9.20319790	      4.00697794	     -7.83137941	    -19.15637173	     11.47513635	      6.86456306	     26.22488876	     -2.76618742	      7.25857426	    -54.93932939	      9.67614265	     -0.35107984	     -0.37738791	      7.32569968	     -1.61003387
      4.38000000	      1.38843139	      8.69381143	    191.94165705	      0.40074621	      0.96366572	     -0.58637593	      8.51750451	      4.02281230	     -8.16367096	    -18.64970103	     11.67917460	      6.83211627	     27.08780027	     -2.79621989	      6.65125979	    -53.59230456	      9.91646830	     -0.35465780	     -0.32967581	      7.27259038	     -1.38967500
      4.39000000	      1.30617144	      8.62988552	    192.41037567	      0.39460248	      0.96378778	     -0.58548199	      7.70535975	      4.02821361	     -8.52377906	    -18.13397870	     11.87478696	      6.76702223	     27.78565010	     -2.85634591	      6.00227908	    -52.16414498	     10.07430416	     -0.44758685	     -0.40166868	      7.19358471	     -1.18839468
      4.40000000	      1.26010551	      8.58323910	    192.87882355	      0.38845487	      0.96376689	     -0.58448358	      6.93762819	      4.05047004	     -8.86495613	    -17.62620465	     12.07469898	      6.69246647	     28.48692214	     -2.92718409	      5.40106064	    -50.67254468	     10.15275926	     -0.65897854	     -0.42717835	      7.12026883	     -0.99069415
      4.41000000	      1.22295848	      8.53100626	    193.34619412	      0.38228304	      0.96364359	     -0.58338200	      6.18451407	      4.06894282	     -9.20365814	    -17.13549987	     12.27997746	      6.61288756	     29.15072175	     -2.99430921	      4.83301565	    -49.11245639	     10.15180025	     -0.93700399	     -0.44452275	      7.03230407	     -0.81862080
      4.42000000	      1.18676599	      8.47776599	    193.80817588	      0.37609540	      0.96342332	     -0.58217092	      5.44279811	      4.08888780	     -9.53633786	    -16.66821400	     12.49438249	      6.52671160	     29.76529721	     -3.05802331	      4.30877319	    -47.48146808	     10.06584641	     -1.26342555	     -0.46234165	      6.93818704	     -0.65156441
      4.43000000	      1.15537701	      8.43543881	    194.25432188	      0.36988839	      0.96308970	     -0.58087972	      4.71679627	      4.12666236	     -9.82893258	    -16.21929253	     12.73066010	      6.42850370	     30.33616745	     -3.13096907	      3.83385476	    -45.78419911	      9.91106920	     -1.67578093	     -0.47474538	      6.84896285	     -0.49443696
